<svg width="16" height="17" viewBox="0 0 16 17" fill="none" xmlns="http://www.w3.org/2000/svg">
<path fill-rule="evenodd" clip-rule="evenodd" d="M12.5657 3.93451C12.8781 4.24693 12.8781 4.75346 12.5657 5.06588L4.5657 13.0659C4.25328 13.3783 3.74675 13.3783 3.43433 13.0659C3.12191 12.7535 3.12191 12.2469 3.43433 11.9345L11.4343 3.93451C11.7467 3.62209 12.2533 3.62209 12.5657 3.93451Z" fill="#A0A0A0"/>
<path fill-rule="evenodd" clip-rule="evenodd" d="M3.43433 3.93451C3.74675 3.62209 4.25328 3.62209 4.5657 3.93451L12.5657 11.9345C12.8781 12.2469 12.8781 12.7535 12.5657 13.0659C12.2533 13.3783 11.7467 13.3783 11.4343 13.0659L3.43433 5.06588C3.12191 4.75346 3.12191 4.24693 3.43433 3.93451Z" fill="#A0A0A0"/>
</svg>
