<svg width="27" height="27" viewBox="0 0 27 27" fill="none" xmlns="http://www.w3.org/2000/svg">
<path fill-rule="evenodd" clip-rule="evenodd" d="M13.5 0C20.9558 0 27 5.95258 27 13.2955C27 20.6383 20.9558 26.5909 13.5 26.5909C6.04416 26.5909 0 20.6383 0 13.2955C0 5.95258 6.04416 0 13.5 0ZM18.8009 17.4172C17.4578 19.1112 15.723 19.9373 13.5001 19.9373C11.2772 19.9373 9.54238 19.1112 8.19934 17.4172C7.81697 16.9349 7.11 16.8491 6.62027 17.2257C6.13054 17.6023 6.04351 18.2986 6.42588 18.7809C8.19716 21.0151 10.5873 22.1532 13.5001 22.1532C16.4129 22.1532 18.803 21.0151 20.5743 18.7809C20.9567 18.2986 20.8697 17.6023 20.3799 17.2257C19.8902 16.8491 19.1832 16.9349 18.8009 17.4172ZM9.00019 8.86371C8.06821 8.86371 7.31269 9.85581 7.31269 11.0796C7.31269 12.3034 8.06821 13.2955 9.00019 13.2955C9.93217 13.2955 10.6877 12.3034 10.6877 11.0796C10.6877 9.85581 9.93217 8.86371 9.00019 8.86371ZM17.9998 8.86371C17.0678 8.86371 16.3123 9.85581 16.3123 11.0796C16.3123 12.3034 17.0678 13.2955 17.9998 13.2955C18.9318 13.2955 19.6873 12.3034 19.6873 11.0796C19.6873 9.85581 18.9318 8.86371 17.9998 8.86371Z" fill="white" fill-opacity="0.55"/>
</svg>
