<svg width="60" height="60" viewBox="0 0 60 60" fill="none" xmlns="http://www.w3.org/2000/svg">
<path fill-rule="evenodd" clip-rule="evenodd" d="M25.7134 0.338994C19.3605 1.32873 13.957 4.01825 9.25765 8.52981C4.50538 13.0921 1.65977 18.5851 0.493259 25.4469C-0.169249 29.3448 -0.166294 30.6526 0.513677 34.5087C1.65735 40.9957 4.13141 46.0741 8.34019 50.5733C14.4212 57.074 24.3137 60.8276 32.7724 59.8444C46.6305 58.2332 56.6821 49.1389 59.655 35.5215C60.0679 33.6299 60.1297 25.3214 59.7337 24.9348C59.5677 24.7731 58.3485 25.5159 56.3833 26.9763L53.2938 29.2725L53.1186 31.4685C52.8601 34.7123 52.203 37.0776 50.7149 40.1223C47.2533 47.2057 40.6438 51.8567 32.6313 52.848C21.3467 54.2445 10.4118 46.4969 7.7298 35.2048C6.79353 31.2619 7.06649 26.0441 8.40682 22.2743C9.0927 20.3448 10.7745 17.3388 12.0426 15.7752C19.2391 6.90255 31.043 4.44327 41.0175 9.73823L43.2484 10.9227L45.9876 8.8933C47.494 7.77703 48.7526 6.78327 48.7849 6.68521C48.8851 6.37733 46.6668 4.84679 44.2913 3.58518C38.4902 0.504218 31.968 -0.635425 25.7134 0.338994ZM44.1594 18.7549C31.1728 28.3825 30.4039 28.9394 30.0944 28.9394C29.9445 28.9394 27.4866 27.4739 24.6324 25.6828C21.7781 23.8916 19.292 22.3675 19.1072 22.2958C18.8471 22.1948 18.7719 23.1265 18.7735 26.4256L18.7759 30.6857L24.2831 34.1111C27.3122 35.9949 29.9405 37.5348 30.1242 37.5327C30.3077 37.5305 32.09 36.3213 34.0848 34.8456C36.0796 33.3696 39.646 30.7456 42.0102 29.0144C47.926 24.6825 55.821 18.8462 56.746 18.1217L57.5117 17.5215L56.6025 15.8512C55.5008 13.8272 54.0524 11.7384 53.7695 11.7647C53.6556 11.7755 49.3311 14.9212 44.1594 18.7549Z" fill="white"/>
</svg>
