<svg width="40" height="40" viewBox="0 0 40 40" fill="none" xmlns="http://www.w3.org/2000/svg">
<path d="M33.3334 25.5167L36.5 22.35C37.8 21.05 37.8 18.9334 36.5 17.6334L33.3334 14.4834V10C33.3334 8.16669 31.8334 6.66669 30 6.66669H25.5167L22.35 3.50002C21.05 2.20002 18.9334 2.20002 17.6334 3.50002L14.4834 6.66669H10C8.16669 6.66669 6.66669 8.16669 6.66669 10V14.4834L3.50002 17.65C2.20002 18.95 2.20002 21.0667 3.50002 22.3667L6.66669 25.5334V30C6.66669 31.8334 8.16669 33.3334 10 33.3334H14.4834L17.65 36.5C18.95 37.8 21.0667 37.8 22.3667 36.5L25.5334 33.3334H30C31.8334 33.3334 33.3334 31.8334 33.3334 30V25.5167ZM20 30C14.4834 30 10 25.5167 10 20C10 14.4834 14.4834 10 20 10C25.5167 10 30 14.4834 30 20C30 25.5167 25.5167 30 20 30Z" fill="white"/>
</svg>
